<svg xmlns="http://www.w3.org/2000/svg"><defs><style>.icon,path{fill:#0ff;stroke:#000}</style></defs><symbol id="creative-commons-nc" viewBox="0 0 496 512"><path d="M247.6 8C387.4 8 496 115.9 496 256c0 147.2-118.5 248-248.4 248C113.1 504 0 393.2 0 256 0 123.1 104.7 8 247.6 8zM55.8 189.1c-7.4 20.4-11.1 42.7-11.1 66.9 0 110.9 92.1 202.4 203.7 202.4 122.4 0 177.2-101.8 178.5-104.1l-93.4-41.6c-7.7 37.1-41.2 53-68.2 55.4v38.1h-28.8V368c-27.5-.3-52.6-10.2-75.3-29.7l34.1-34.5c31.7 29.4 86.4 31.8 86.4-2.2 0-6.2-2.2-11.2-6.6-15.1-14.2-6-1.8-.1-219.3-97.4zM248.4 52.3c-38.4 0-112.4 8.7-170.5 93l94.8 42.5c10-31.3 40.4-42.9 63.8-44.3v-38.1h28.8v38.1c22.7 1.2 43.4 8.9 62 23L295 199.7c-42.7-29.9-83.5-8-70 11.1 53.4 24.1 43.8 19.8 93 41.6l127.1 56.7c4.1-17.4 6.2-35.1 6.2-53.1 0-57-19.8-105-59.3-143.9-39.3-39.9-87.2-59.8-143.6-59.8z" class="icon"/></symbol><symbol id="calendar" viewBox="0 0 448 512"><path d="M96 32v32H48C21.5 64 0 85.5 0 112v48h448v-48c0-26.5-21.5-48-48-48h-48V32c0-17.7-14.3-32-32-32s-32 14.3-32 32v32H160V32c0-17.7-14.3-32-32-32S96 14.3 96 32zm352 160H0v272c0 26.5 21.5 48 48 48h352c26.5 0 48-21.5 48-48V192z" class="icon"/></symbol><symbol id="rss" viewBox="0 0 448 512"><path d="M0 64c0-17.7 14.3-32 32-32 229.8 0 416 186.2 416 416 0 17.7-14.3 32-32 32s-32-14.3-32-32C384 253.6 226.4 96 32 96 14.3 96 0 81.7 0 64zm128 352c0 35.3-28.7 64-64 64S0 451.3 0 416s28.7-64 64-64 64 28.7 64 64zM32 160c159.1 0 288 128.9 288 288 0 17.7-14.3 32-32 32s-32-14.3-32-32c0-123.7-100.3-224-224-224-17.7 0-32-14.3-32-32s14.3-32 32-32z"/></symbol><symbol id="tilde" viewBox="0 0 512 512"><path d="M474.88 240.8h16.801c-4.48 124.88-102.48 88.48-137.76 72.238-131.6-61.039-129.92 13.441-129.92 13.441H208.88c0-42.559 39.199-118.16 151.2-64.398 122.64 58.797 114.8-21.281 114.8-21.281z"/></symbol><symbol id="envelope" viewBox="0 0 512 512"><path d="M48 64C21.5 64 0 85.5 0 112c0 15.1 7.1 29.3 19.2 38.4l217.6 163.2c11.4 8.5 27 8.5 38.4 0l217.6-163.2c12.1-9.1 19.2-23.3 19.2-38.4 0-26.5-21.5-48-48-48H48zM0 176v208c0 35.3 28.7 64 64 64h384c35.3 0 64-28.7 64-64V176L294.4 339.2a63.9 63.9 0 0 1-76.8 0L0 176z"/></symbol><symbol id="square-instagram" viewBox="0 0 448 512"><path d="M224 202.66A53.34 53.34 0 1 0 277.36 256 53.38 53.38 0 0 0 224 202.66Zm124.71-41a54 54 0 0 0-30.41-30.41c-21-8.29-71-6.43-94.3-6.43s-73.25-1.93-94.31 6.43a54 54 0 0 0-30.41 30.41c-8.28 21-6.43 71.05-6.43 94.33s-1.85 73.27 6.47 94.34a54 54 0 0 0 30.41 30.41c21 8.29 71 6.43 94.31 6.43s73.24 1.93 94.3-6.43a54 54 0 0 0 30.41-30.41c8.35-21 6.43-71.05 6.43-94.33s1.92-73.26-6.43-94.33ZM224 338a82 82 0 1 1 82-82 81.9 81.9 0 0 1-82 82Zm85.38-148.3a19.14 19.14 0 1 1 19.13-19.14 19.1 19.1 0 0 1-19.09 19.18ZM400 32H48A48 48 0 0 0 0 80v352a48 48 0 0 0 48 48h352a48 48 0 0 0 48-48V80a48 48 0 0 0-48-48Zm-17.12 290c-1.29 25.63-7.14 48.34-25.85 67s-41.4 24.63-67 25.85c-26.41 1.49-105.59 1.49-132 0-25.63-1.29-48.26-7.15-67-25.85s-24.63-41.42-25.85-67c-1.49-26.42-1.49-105.61 0-132 1.29-25.63 7.07-48.34 25.85-67s41.47-24.56 67-25.78c26.41-1.49 105.59-1.49 132 0 25.63 1.29 48.33 7.15 67 25.85s24.63 41.42 25.85 67.05c1.49 26.32 1.49 105.44 0 131.88Z" class="icon"/></symbol><symbol id="stack-overflow" viewBox="0 0 384 512"><path d="M290.7 311 95 269.7 86.8 309l195.7 41zm51-87L188.2 95.7l-25.5 30.8 153.5 128.3zm-31.2 39.7L129.2 179l-16.7 36.5L293.7 300zM262 32l-32 24 119.3 160.3 32-24zm20.5 328h-200v39.7h200zm39.7 80H42.7V320h-40v160h359.5V320h-40z" class="icon"/></symbol><symbol id="github-alt" viewBox="0 0 480 512"><path d="M186.1 328.7c0 20.9-10.9 55.1-36.7 55.1s-36.7-34.2-36.7-55.1 10.9-55.1 36.7-55.1 36.7 34.2 36.7 55.1zM480 278.2c0 31.9-3.2 65.7-17.5 95-37.9 76.6-142.1 74.8-216.7 74.8-75.8 0-186.2 2.7-225.6-74.8-14.6-29-20.2-63.1-20.2-95 0-41.9 13.9-81.5 41.5-113.6-5.2-15.8-7.7-32.4-7.7-48.8 0-21.5 4.9-32.3 14.6-51.8 45.3 0 74.3 9 108.8 36 29-6.9 58.8-10 88.7-10 27 0 54.2 2.9 80.4 9.2 34-26.7 63-35.2 107.8-35.2 9.8 19.5 14.6 30.3 14.6 51.8 0 16.4-2.6 32.7-7.7 48.2 27.5 32.4 39 72.3 39 114.2zm-64.3 50.5c0-43.9-26.7-82.6-73.5-82.6-18.9 0-37 3.4-56 6-14.9 2.3-29.8 3.2-45.1 3.2-15.2 0-30.1-.9-45.1-3.2-18.7-2.6-37-6-56-6-46.8 0-73.5 38.7-73.5 82.6 0 87.8 80.4 101.3 150.4 101.3h48.2c70.3 0 150.6-13.4 150.6-101.3zm-82.6-55.1c-25.8 0-36.7 34.2-36.7 55.1s10.9 55.1 36.7 55.1 36.7-34.2 36.7-55.1-10.9-55.1-36.7-55.1z" class="icon"/></symbol><symbol id="creative-commons-sampling" viewBox="0 0 496 512"><path d="M247.6 8C389.4 8 496 118.1 496 256c0 147.1-118.5 248-248.4 248C113.6 504 0 394.5 0 256 0 123.1 104.7 8 247.6 8zm.8 44.7C130.2 52.7 44.7 150.6 44.7 256c0 109.8 91.2 202.8 203.7 202.8 103.2 0 202.8-81.1 202.8-202.8.1-113.8-90.2-203.3-202.8-203.3zm3.6 53.2c2.8-.3 11.5 1 11.5 11.5l6.6 107.2 4.9-59.3c0-6 4.7-10.6 10.6-10.6 5.9 0 10.6 4.7 10.6 10.6 0 2.5-.5-5.7 5.7 81.5l5.8-64.2c.3-2.9 2.9-9.3 10.2-9.3 3.8 0 9.9 2.3 10.6 8.9l11.5 96.5 5.3-12.8c1.8-4.4 5.2-6.6 10.2-6.6h58v21.3h-50.9l-18.2 44.3c-3.9 9.9-19.5 9.1-20.8-3.1l-4-31.9-7.5 92.6c-.3 3-3 9.3-10.2 9.3-3 0-9.8-2.1-10.6-9.3 0-1.9.6 5.8-6.2-77.9l-5.3 72.2c-1.1 4.8-4.8 9.3-10.6 9.3-2.9 0-9.8-2-10.6-9.3 0-1.9.5 6.7-5.8-87.7l-5.8 94.8c0 6.3-3.6 12.4-10.6 12.4-5.2 0-10.6-4.1-10.6-12l-5.8-87.7c-5.8 92.5-5.3 84-5.3 85.9-1.1 4.8-4.8 9.3-10.6 9.3-3 0-9.8-2.1-10.6-9.3 0-.7-.4-1.1-.4-2.6l-6.2-88.6L182 348c-.7 6.5-6.7 9.3-10.6 9.3-5.8 0-9.6-4.1-10.6-8.9L149.7 272c-2 4-3.5 8.4-11.1 8.4H87.2v-21.3H132l13.7-27.9c4.4-9.9 18.2-7.2 19.9 2.7l3.1 20.4 8.4-97.9c0-6 4.8-10.6 10.6-10.6.5 0 10.6-.2 10.6 12.4l4.9 69.1 6.6-92.6c0-10.1 9.5-10.6 10.2-10.6.6 0 10.6.7 10.6 10.6l5.3 80.6 6.2-97.9c.1-1.1-.6-10.3 9.9-11.5z" class="icon"/></symbol><symbol id="creative-commons" viewBox="0 0 496 512"><path d="m245.83 214.87-33.22 17.28c-9.43-19.58-25.24-19.93-27.46-19.93-22.13 0-33.22 14.61-33.22 43.84 0 23.57 9.21 43.84 33.22 43.84 14.47 0 24.65-7.09 30.57-21.26l30.55 15.5c-6.17 11.51-25.69 38.98-65.1 38.98-22.6 0-73.96-10.32-73.96-77.05 0-58.69 43-77.06 72.63-77.06 30.72-.01 52.7 11.95 65.99 35.86zm143.05 0-32.78 17.28c-9.5-19.77-25.72-19.93-27.9-19.93-22.14 0-33.22 14.61-33.22 43.84 0 23.55 9.23 43.84 33.22 43.84 14.45 0 24.65-7.09 30.54-21.26l31 15.5c-2.1 3.75-21.39 38.98-65.09 38.98-22.69 0-73.96-9.87-73.96-77.05 0-58.67 42.97-77.06 72.63-77.06 30.71-.01 52.58 11.95 65.56 35.86zM247.56 8.05C104.74 8.05 0 123.11 0 256.05c0 138.49 113.6 248 247.56 248 129.93 0 248.44-100.87 248.44-248 0-137.87-106.62-248-248.44-248zm.87 450.81c-112.54 0-203.7-93.04-203.7-202.81 0-105.42 85.43-203.27 203.72-203.27 112.53 0 202.82 89.46 202.82 203.26-.01 121.69-99.68 202.82-202.84 202.82z" class="icon"/></symbol><symbol id="codepen" viewBox="0 0 512 512"><path d="m502.285 159.704-234-156c-7.987-4.915-16.511-4.96-24.571 0l-234 156C3.714 163.703 0 170.847 0 177.989v155.999c0 7.143 3.714 14.286 9.715 18.286l234 156.022c7.987 4.915 16.511 4.96 24.571 0l234-156.022c6-3.999 9.715-11.143 9.715-18.286V177.989c-.001-7.142-3.715-14.286-9.716-18.285zM278 63.131l172.286 114.858-76.857 51.429L278 165.703V63.131zm-44 0v102.572l-95.429 63.715-76.857-51.429L234 63.131zM44 219.132l55.143 36.857L44 292.846v-73.714zm190 229.715L61.714 333.989l76.857-51.429L234 346.275v102.572zm22-140.858-77.715-52 77.715-52 77.715 52-77.715 52zm22 140.858V346.275l95.429-63.715 76.857 51.429L278 448.847zm190-156.001-55.143-36.857L468 219.132v73.714z" class="icon"/></symbol><symbol id="git-alt" viewBox="0 0 448 512"><path d="M439.55 236.05 244 40.45a28.87 28.87 0 0 0-40.81 0l-40.66 40.63 51.52 51.52c27.06-9.14 52.68 16.77 43.39 43.68l49.66 49.66c34.23-11.8 61.18 31 35.47 56.69-26.49 26.49-70.21-2.87-56-37.34L240.22 199v121.85c25.3 12.54 22.26 41.85 9.08 55a34.34 34.34 0 0 1-48.55 0c-17.57-17.6-11.07-46.91 11.25-56v-123c-20.8-8.51-24.6-30.74-18.64-45L142.57 101 8.45 235.14a28.86 28.86 0 0 0 0 40.81l195.61 195.6a28.86 28.86 0 0 0 40.8 0l194.69-194.69a28.86 28.86 0 0 0 0-40.81z" class="icon"/></symbol><symbol id="openid" viewBox="0 0 448 512"><path d="m271.5 432-68 32C88.5 453.7 0 392.5 0 318.2c0-71.5 82.5-131 191.7-144.3v43c-71.5 12.5-124 53-124 101.3 0 51 58.5 93.3 135.7 103v-340l68-33.2v384zM448 291l-131.3-28.5 36.8-20.7c-19.5-11.5-43.5-20-70-24.8v-43c46.2 5.5 87.7 19.5 120.3 39.3l35-19.8L448 291z" class="icon"/></symbol><symbol id="square-twitter" viewBox="0 0 448 512"><path d="M400 32H48C21.5 32 0 53.5 0 80v352c0 26.5 21.5 48 48 48h352c26.5 0 48-21.5 48-48V80c0-26.5-21.5-48-48-48zm-48.9 158.8c.2 2.8.2 5.7.2 8.5 0 86.7-66 186.6-186.6 186.6-37.2 0-71.7-10.8-100.7-29.4 5.3.6 10.4.8 15.8.8 30.7 0 58.9-10.4 81.4-28-28.8-.6-53-19.5-61.3-45.5 10.1 1.5 19.2 1.5 29.6-1.2-30-6.1-52.5-32.5-52.5-64.4v-.8c8.7 4.9 18.9 7.9 29.6 8.3a65.447 65.447 0 0 1-29.2-54.6c0-12.2 3.2-23.4 8.9-33.1 32.3 39.8 80.8 65.8 135.2 68.6-9.3-44.5 24-80.6 64-80.6 18.9 0 35.9 7.9 47.9 20.7 14.8-2.8 29-8.3 41.6-15.8-4.9 15.2-15.2 28-28.8 36.1 13.2-1.4 26-5.1 37.8-10.2-8.9 13.1-20.1 24.7-32.9 34z" class="icon"/></symbol><symbol id="square-youtube" viewBox="0 0 448 512"><path d="m186.8 202.1 95.2 54.1-95.2 54.1V202.1zM448 80v352c0 26.5-21.5 48-48 48H48c-26.5 0-48-21.5-48-48V80c0-26.5 21.5-48 48-48h352c26.5 0 48 21.5 48 48zm-42 176.3s0-59.6-7.6-88.2c-4.2-15.8-16.5-28.2-32.2-32.4C337.9 128 224 128 224 128s-113.9 0-142.2 7.7c-15.7 4.2-28 16.6-32.2 32.4-7.6 28.5-7.6 88.2-7.6 88.2s0 59.6 7.6 88.2c4.2 15.8 16.5 27.7 32.2 31.9C110.1 384 224 384 224 384s113.9 0 142.2-7.7c15.7-4.2 28-16.1 32.2-31.9 7.6-28.5 7.6-88.1 7.6-88.1z" class="icon"/></symbol><symbol id="discord" viewBox="0 0 640 512"><path d="M524.531 69.836a1.5 1.5 0 0 0-.764-.7A485.065 485.065 0 0 0 404.081 32.03a1.816 1.816 0 0 0-1.923.91 337.461 337.461 0 0 0-14.9 30.6 447.848 447.848 0 0 0-134.426 0 309.541 309.541 0 0 0-15.135-30.6 1.89 1.89 0 0 0-1.924-.91 483.689 483.689 0 0 0-119.688 37.107 1.712 1.712 0 0 0-.788.676C39.068 183.651 18.186 294.69 28.43 404.354a2.016 2.016 0 0 0 .765 1.375 487.666 487.666 0 0 0 146.825 74.189 1.9 1.9 0 0 0 2.063-.676A348.2 348.2 0 0 0 208.12 430.4a1.86 1.86 0 0 0-1.019-2.588 321.173 321.173 0 0 1-45.868-21.853 1.885 1.885 0 0 1-.185-3.126 251.047 251.047 0 0 0 9.109-7.137 1.819 1.819 0 0 1 1.9-.256c96.229 43.917 200.41 43.917 295.5 0a1.812 1.812 0 0 1 1.924.233 234.533 234.533 0 0 0 9.132 7.16 1.884 1.884 0 0 1-.162 3.126 301.407 301.407 0 0 1-45.89 21.83 1.875 1.875 0 0 0-1 2.611 391.055 391.055 0 0 0 30.014 48.815 1.864 1.864 0 0 0 2.063.7A486.048 486.048 0 0 0 610.7 405.729a1.882 1.882 0 0 0 .765-1.352c12.264-126.783-20.532-236.912-86.934-334.541ZM222.491 337.58c-28.972 0-52.844-26.587-52.844-59.239s23.409-59.241 52.844-59.241c29.665 0 53.306 26.82 52.843 59.239 0 32.654-23.41 59.241-52.843 59.241Zm195.38 0c-28.971 0-52.843-26.587-52.843-59.239s23.409-59.241 52.843-59.241c29.667 0 53.307 26.82 52.844 59.239 0 32.654-23.177 59.241-52.844 59.241Z" class="icon"/></symbol><symbol id="keybase" viewBox="0 0 448 512"><path d="M286.17 419a18 18 0 1 0 18 18 18 18 0 0 0-18-18zm111.92-147.6c-9.5-14.62-39.37-52.45-87.26-73.71q-9.1-4.06-18.38-7.27a78.43 78.43 0 0 0-47.88-104.13c-12.41-4.1-23.33-6-32.41-5.77-.6-2-1.89-11 9.4-35L198.66 32l-5.48 7.56c-8.69 12.06-16.92 23.55-24.34 34.89a51 51 0 0 0-8.29-1.25c-41.53-2.45-39-2.33-41.06-2.33-50.61 0-50.75 52.12-50.75 45.88l-2.36 36.68c-1.61 27 19.75 50.21 47.63 51.85l8.93.54a214 214 0 0 0-46.29 35.54C14 304.66 14 374 14 429.77v33.64l23.32-29.8a148.6 148.6 0 0 0 14.56 37.56c5.78 10.13 14.87 9.45 19.64 7.33 4.21-1.87 10-6.92 3.75-20.11a178.29 178.29 0 0 1-15.76-53.13l46.82-59.83-24.66 74.11c58.23-42.4 157.38-61.76 236.25-38.59 34.2 10.05 67.45.69 84.74-23.84.72-1 1.2-2.16 1.85-3.22a156.09 156.09 0 0 1 2.8 28.43c0 23.3-3.69 52.93-14.88 81.64-2.52 6.46 1.76 14.5 8.6 15.74 7.42 1.57 15.33-3.1 18.37-11.15C429 443 434 414 434 382.32c0-38.58-13-77.46-35.91-110.92zM142.37 128.58l-15.7-.93-1.39 21.79 13.13.78a93 93 0 0 0 .32 19.57l-22.38-1.34a12.28 12.28 0 0 1-11.76-12.79L107 119c1-12.17 13.87-11.27 13.26-11.32l29.11 1.73a144.35 144.35 0 0 0-7 19.17zm148.42 172.18a10.51 10.51 0 0 1-14.35-1.39l-9.68-11.49-34.42 27a8.09 8.09 0 0 1-11.13-1.08l-15.78-18.64a7.38 7.38 0 0 1 1.34-10.34l34.57-27.18-14.14-16.74-17.09 13.45a7.75 7.75 0 0 1-10.59-1s-3.72-4.42-3.8-4.53a7.38 7.38 0 0 1 1.37-10.34L214 225.19s-18.51-22-18.6-22.14a9.56 9.56 0 0 1 1.74-13.42 10.38 10.38 0 0 1 14.3 1.37l81.09 96.32a9.58 9.58 0 0 1-1.74 13.44zM187.44 419a18 18 0 1 0 18 18 18 18 0 0 0-18-18z" class="icon"/></symbol><symbol id="square-github" viewBox="0 0 448 512"><path d="M400 32H48C21.5 32 0 53.5 0 80v352c0 26.5 21.5 48 48 48h352c26.5 0 48-21.5 48-48V80c0-26.5-21.5-48-48-48zM277.3 415.7c-8.4 1.5-11.5-3.7-11.5-8 0-5.4.2-33 .2-55.3 0-15.6-5.2-25.5-11.3-30.7 37-4.1 76-9.2 76-73.1 0-18.2-6.5-27.3-17.1-39 1.7-4.3 7.4-22-1.7-45-13.9-4.3-45.7 17.9-45.7 17.9-13.2-3.7-27.5-5.6-41.6-5.6-14.1 0-28.4 1.9-41.6 5.6 0 0-31.8-22.2-45.7-17.9-9.1 22.9-3.5 40.6-1.7 45-10.6 11.7-15.6 20.8-15.6 39 0 63.6 37.3 69 74.3 73.1-4.8 4.3-9.1 11.7-10.6 22.3-9.5 4.3-33.8 11.7-48.3-13.9-9.1-15.8-25.5-17.1-25.5-17.1-16.2-.2-1.1 10.2-1.1 10.2 10.8 5 18.4 24.2 18.4 24.2 9.7 29.7 56.1 19.7 56.1 19.7 0 13.9.2 36.5.2 40.6 0 4.3-3 9.5-11.5 8-66-22.1-112.2-84.9-112.2-158.3 0-91.8 70.2-161.5 162-161.5S388 165.6 388 257.4c.1 73.4-44.7 136.3-110.7 158.3zm-98.1-61.1c-1.9.4-3.7-.4-3.9-1.7-.2-1.5 1.1-2.8 3-3.2 1.9-.2 3.7.6 3.9 1.9.3 1.3-1 2.6-3 3zm-9.5-.9c0 1.3-1.5 2.4-3.5 2.4-2.2.2-3.7-.9-3.7-2.4 0-1.3 1.5-2.4 3.5-2.4 1.9-.2 3.7.9 3.7 2.4zm-13.7-1.1c-.4 1.3-2.4 1.9-4.1 1.3-1.9-.4-3.2-1.9-2.8-3.2.4-1.3 2.4-1.9 4.1-1.5 2 .6 3.3 2.1 2.8 3.4zm-12.3-5.4c-.9 1.1-2.8.9-4.3-.6-1.5-1.3-1.9-3.2-.9-4.1.9-1.1 2.8-.9 4.3.6 1.3 1.3 1.8 3.3.9 4.1zm-9.1-9.1c-.9.6-2.6 0-3.7-1.5s-1.1-3.2 0-3.9c1.1-.9 2.8-.2 3.7 1.3 1.1 1.5 1.1 3.3 0 4.1zm-6.5-9.7c-.9.9-2.4.4-3.5-.6-1.1-1.3-1.3-2.8-.4-3.5.9-.9 2.4-.4 3.5.6 1.1 1.3 1.3 2.8.4 3.5zm-6.7-7.4c-.4.9-1.7 1.1-2.8.4-1.3-.6-1.9-1.7-1.5-2.6.4-.6 1.5-.9 2.8-.4 1.3.7 1.9 1.8 1.5 2.6z" class="icon"/></symbol><symbol id="angrycreative" viewBox="0 0 640 512"><path d="m640 238.2-3.2 28.2-34.5 2.3-2 18.1 34.5-2.3-3.2 28.2-34.4 2.2-2.3 20.1 34.4-2.2-3 26.1-64.7 4.1 12.7-113.2L527 365.2l-31.9 2-23.8-117.8 30.3-2 13.6 79.4 31.7-82.4 93.1-6.2zM426.8 371.5l28.3-1.8L468 249.6l-28.4 1.9-12.8 120zM162 388.1l-19.4-36-3.5 37.4-28.2 1.7 2.7-29.1c-11 18-32 34.3-56.9 35.8C23.9 399.9-3 377 .3 339.7c2.6-29.3 26.7-62.8 67.5-65.4 37.7-2.4 47.6 23.2 51.3 28.8l2.8-30.8 38.9-2.5c20.1-1.3 38.7 3.7 42.5 23.7l2.6-26.6 64.8-4.2-2.7 27.9-36.4 2.4-1.7 17.9 36.4-2.3-2.7 27.9-36.4 2.3-1.9 19.9 36.3-2.3-2.1 20.8 55-117.2 23.8-1.6L370.4 369l8.9-85.6-22.3 1.4 2.9-27.9 75-4.9-3 28-24.3 1.6-9.7 91.9-58 3.7-4.3-15.6-39.4 2.5-8 16.3-126.2 7.7zm-44.3-70.2-26.4 1.7C84.6 307.2 76.9 303 65 303.8c-19 1.2-33.3 17.5-34.6 33.3-1.4 16 7.3 32.5 28.7 31.2 12.8-.8 21.3-8.6 28.9-18.9l27-1.7 2.7-29.8zm56.1-7.7c1.2-12.9-7.6-13.6-26.1-12.4l-2.7 28.5c14.2-.9 27.5-2.1 28.8-16.1zm21.1 70.8 5.8-60c-5 13.5-14.7 21.1-27.9 26.6l22.1 33.4zm135.4-45-7.9-37.8-15.8 39.3 23.7-1.5zm-170.1-74.6-4.3-17.5-39.6 2.6-8.1 18.2-31.9 2.1 57-121.9 23.9-1.6 30.7 102 9.9-104.7 27-1.8 37.8 63.6 6.5-66.6 28.5-1.9-4 41.2c7.4-13.5 22.9-44.7 63.6-47.5 40.5-2.8 52.4 29.3 53.4 30.3l3.3-32 39.3-2.7c12.7-.9 27.8.3 36.3 9.7l-4.4-11.9 32.2-2.2 12.9 43.2 23-45.7 31-2.2-43.6 78.4-4.8 44.3-28.4 1.9 4.8-44.3-15.8-43c1 22.3-9.2 40.1-32 49.6l25.2 38.8-36.4 2.4-19.2-36.8-4 38.3-28.4 1.9 3.3-31.5c-6.7 9.3-19.7 35.4-59.6 38-26.2 1.7-45.6-10.3-55.4-39.2l-4 40.3-25 1.6-37.6-63.3-6.3 66.2-56.8 3.7zm276.6-82.1c10.2-.7 17.5-2.1 21.6-4.3 4.5-2.4 7-6.4 7.6-12.1.6-5.3-.6-8.8-3.4-10.4-3.6-2.1-10.6-2.8-22.9-2l-2.9 28.8zM327.7 214c5.6 5.9 12.7 8.5 21.3 7.9 4.7-.3 9.1-1.8 13.3-4.1 5.5-3 10.6-8 15.1-14.3l-34.2 2.3 2.4-23.9 63.1-4.3 1.2-12-31.2 2.1c-4.1-3.7-7.8-6.6-11.1-8.1-4-1.7-8.1-2.8-12.2-2.5-8 .5-15.3 3.6-22 9.2-7.7 6.4-12 14.5-12.9 24.4-1.1 9.6 1.4 17.3 7.2 23.3zm-201.3 8.2 23.8-1.6-8.3-37.6-15.5 39.2z" class="icon"/></symbol><symbol id="square-gitlab" viewBox="0 0 448 512"><path d="M48 32h352c26.5 0 48 21.5 48 48v352c0 26.5-21.5 48-48 48H48c-26.5 0-48-21.5-48-48V80c0-26.5 21.5-48 48-48zm334.1 192.9-44.6-116.4c-.9-2.3-2.6-4.3-4.6-5.6-1.6-1-3.4-1.6-5.2-1.8-1.8-.2-3.7.1-5.4.7-1.7.7-3.3 1.7-4.5 3.1-1.2 1.4-2.1 3-2.6 4.8L285 201.9H162.1l-29.2-92.2c-.5-1.8-1.5-3.4-2.7-4.8-2.1-1.3-2.8-2.4-4.5-3-2.6-.7-3.6-1.8-5.4-.8-1.8.2-3.6.8-5.2 1.8-2 1.3-3.6 3.3-4.5 5.6L65.94 224.9l-.47 1.2a82.94 82.94 0 0 0-2.25 52.5c4.96 17.3 15.4 32.5 29.75 43.3l.17.1.38.3 67.88 50.9 54.2 40.9c1.5 1 5.3 2.8 8.3 2.8 3 0 6-1.8 8.4-2.8l54.1-40.9 68.4-51.2.2-.1c14.4-10.9 24.8-26.1 29.8-43.3 4.9-17.3 3.3-35.7-2.3-52.5l-.4-1.2z" class="icon"/></symbol><symbol id="cc-paypal" viewBox="0 0 576 512"><path d="M186.3 258.2c0 12.2-9.7 21.5-22 21.5-9.2 0-16-5.2-16-15 0-12.2 9.5-22 21.7-22 9.3 0 16.3 5.7 16.3 15.5zM80.5 209.7h-4.7c-1.5 0-3 1-3.2 2.7l-4.3 26.7 8.2-.3c11 0 19.5-1.5 21.5-14.2 2.3-13.4-6.2-14.9-17.5-14.9zm284 0H360c-1.8 0-3 1-3.2 2.7l-4.2 26.7 8-.3c13 0 22-3 22-18-.1-10.6-9.6-11.1-18.1-11.1zM576 80v352c0 26.5-21.5 48-48 48H48c-26.5 0-48-21.5-48-48V80c0-26.5 21.5-48 48-48h480c26.5 0 48 21.5 48 48zM128.3 215.4c0-21-16.2-28-34.7-28h-40c-2.5 0-5 2-5.2 4.7L32 294.2c-.3 2 1.2 4 3.2 4h19c2.7 0 5.2-2.9 5.5-5.7l4.5-26.6c1-7.2 13.2-4.7 18-4.7 28.6 0 46.1-17 46.1-45.8zm84.2 8.8h-19c-3.8 0-4 5.5-4.2 8.2-5.8-8.5-14.2-10-23.7-10-24.5 0-43.2 21.5-43.2 45.2 0 19.5 12.2 32.2 31.7 32.2 9 0 20.2-4.9 26.5-11.9-.5 1.5-1 4.7-1 6.2 0 2.3 1 4 3.2 4H200c2.7 0 5-2.9 5.5-5.7l10.2-64.3c.3-1.9-1.2-3.9-3.2-3.9zm40.5 97.9 63.7-92.6c.5-.5.5-1 .5-1.7 0-1.7-1.5-3.5-3.2-3.5h-19.2c-1.7 0-3.5 1-4.5 2.5l-26.5 39-11-37.5c-.8-2.2-3-4-5.5-4h-18.7c-1.7 0-3.2 1.8-3.2 3.5 0 1.2 19.5 56.8 21.2 62.1-2.7 3.8-20.5 28.6-20.5 31.6 0 1.8 1.5 3.2 3.2 3.2h19.2c1.8-.1 3.5-1.1 4.5-2.6zm159.3-106.7c0-21-16.2-28-34.7-28h-39.7c-2.7 0-5.2 2-5.5 4.7l-16.2 102c-.2 2 1.3 4 3.2 4h20.5c2 0 3.5-1.5 4-3.2l4.5-29c1-7.2 13.2-4.7 18-4.7 28.4 0 45.9-17 45.9-45.8zm84.2 8.8h-19c-3.8 0-4 5.5-4.3 8.2-5.5-8.5-14-10-23.7-10-24.5 0-43.2 21.5-43.2 45.2 0 19.5 12.2 32.2 31.7 32.2 9.3 0 20.5-4.9 26.5-11.9-.3 1.5-1 4.7-1 6.2 0 2.3 1 4 3.2 4H484c2.7 0 5-2.9 5.5-5.7l10.2-64.3c.3-1.9-1.2-3.9-3.2-3.9zm47.5-33.3c0-2-1.5-3.5-3.2-3.5h-18.5c-1.5 0-3 1.2-3.2 2.7l-16.2 104-.3.5c0 1.8 1.5 3.5 3.5 3.5h16.5c2.5 0 5-2.9 5.2-5.7L544 191.2v-.3zm-90 51.8c-12.2 0-21.7 9.7-21.7 22 0 9.7 7 15 16.2 15 12 0 21.7-9.2 21.7-21.5.1-9.8-6.9-15.5-16.2-15.5z" class="icon"/></symbol><symbol id="squarespace" viewBox="0 0 512 512"><path d="M186.12 343.34c-9.65 9.65-9.65 25.29 0 34.94 9.65 9.65 25.29 9.65 34.94 0L378.24 221.1c19.29-19.29 50.57-19.29 69.86 0s19.29 50.57 0 69.86L293.95 445.1c19.27 19.29 50.53 19.31 69.82.04l.04-.04 119.25-119.24c38.59-38.59 38.59-101.14 0-139.72-38.59-38.59-101.15-38.59-139.72 0l-157.22 157.2zm244.53-104.8c-9.65-9.65-25.29-9.65-34.93 0l-157.2 157.18c-19.27 19.29-50.53 19.31-69.82.05l-.05-.05c-9.64-9.64-25.27-9.65-34.92-.01l-.01.01c-9.65 9.64-9.66 25.28-.02 34.93l.02.02c38.58 38.57 101.14 38.57 139.72 0l157.2-157.2c9.65-9.65 9.65-25.29.01-34.93zm-261.99 87.33 157.18-157.18c9.64-9.65 9.64-25.29 0-34.94-9.64-9.64-25.27-9.64-34.91 0L133.72 290.93c-19.28 19.29-50.56 19.3-69.85.01l-.01-.01c-19.29-19.28-19.31-50.54-.03-69.84l.03-.03L218.03 66.89c-19.28-19.29-50.55-19.3-69.85-.02l-.02.02L28.93 186.14c-38.58 38.59-38.58 101.14 0 139.72 38.6 38.59 101.13 38.59 139.73.01zm-87.33-52.4c9.64 9.64 25.27 9.64 34.91 0l157.21-157.19c19.28-19.29 50.55-19.3 69.84-.02l.02.02c9.65 9.65 25.29 9.65 34.93 0 9.65-9.65 9.65-25.29 0-34.93-38.59-38.59-101.13-38.59-139.72 0L81.33 238.54c-9.65 9.64-9.65 25.28-.01 34.93h.01z" class="icon"/></symbol><symbol id="itch-io" viewBox="0 0 512 512"><path d="M71.92 34.77C50.2 47.67 7.4 96.84 7 109.73v21.34c0 27.06 25.29 50.84 48.25 50.84 27.57 0 50.54-22.85 50.54-50 0 27.12 22.18 50 49.76 50s49-22.85 49-50c0 27.12 23.59 50 51.16 50h.5c27.57 0 51.16-22.85 51.16-50 0 27.12 21.47 50 49 50s49.76-22.85 49.76-50c0 27.12 23 50 50.54 50 23 0 48.25-23.78 48.25-50.84v-21.34c-.4-12.9-43.2-62.07-64.92-75C372.56 32.4 325.76 32 256 32S91.14 33.1 71.92 34.77zm132.32 134.39c-22 38.4-77.9 38.71-99.85.25-13.17 23.14-43.17 32.07-56 27.66-3.87 40.15-13.67 237.13 17.73 269.15 80 18.67 302.08 18.12 379.76 0 31.65-32.27 21.32-232 17.75-269.15-12.92 4.44-42.88-4.6-56-27.66-22 38.52-77.85 38.1-99.85-.24-7.1 12.49-23.05 28.94-51.76 28.94a57.54 57.54 0 0 1-51.75-28.94zm-41.58 53.77c16.47 0 31.09 0 49.22 19.78a436.91 436.91 0 0 1 88.18 0C318.22 223 332.85 223 349.31 223c52.33 0 65.22 77.53 83.87 144.45 17.26 62.15-5.52 63.67-33.95 63.73-42.15-1.57-65.49-32.18-65.49-62.79-39.25 6.43-101.93 8.79-155.55 0 0 30.61-23.34 61.22-65.49 62.79-28.42-.06-51.2-1.58-33.94-63.73 18.67-67 31.56-144.45 83.88-144.45zM256 270.79s-44.38 40.77-52.35 55.21l29-1.17v25.32c0 1.55 21.34.16 23.33.16 11.65.54 23.31 1 23.31-.16v-25.28l29 1.17c-8-14.48-52.35-55.24-52.35-55.24z" class="icon"/></symbol><symbol id="gitlab" viewBox="0 0 512 512"><path d="m503.5 204.6-.7-1.8-69.7-181.78c-1.4-3.57-3.9-6.59-7.2-8.64-2.4-1.55-5.1-2.515-8-2.81-2.9-.295-5.7.083-8.4 1.11-2.7 1.02-5.1 2.66-7.1 4.78-1.9 2.12-3.3 4.67-4.1 7.44l-47 144H160.8l-47.1-144c-.8-2.77-2.2-5.31-4.1-7.43-2-2.12-4.4-3.75-7.1-4.77a18.1 18.1 0 0 0-8.38-1.113 18.4 18.4 0 0 0-8.04 2.793 18.09 18.09 0 0 0-7.16 8.64L9.267 202.8l-.724 1.8a129.57 129.57 0 0 0-3.52 82c7.747 26.9 24.047 50.7 46.447 67.6l.27.2.59.4 105.97 79.5 52.6 39.7 32 24.2c3.7 1.9 8.3 4.3 13 4.3 4.7 0 9.3-2.4 13-4.3l32-24.2 52.6-39.7 106.7-79.9.3-.3c22.4-16.9 38.7-40.6 45.6-67.5 8.6-27 7.4-55.8-2.6-82z" class="icon"/></symbol><symbol id="reddit-alien" viewBox="0 0 512 512"><path d="M440.3 203.5c-15 0-28.2 6.2-37.9 15.9-35.7-24.7-83.8-40.6-137.1-42.3L293 52.3l88.2 19.8c0 21.6 17.6 39.2 39.2 39.2 22 0 39.7-18.1 39.7-39.7s-17.6-39.7-39.7-39.7c-15.4 0-28.7 9.3-35.3 22l-97.4-21.6c-4.9-1.3-9.7 2.2-11 7.1L246.3 177c-52.9 2.2-100.5 18.1-136.3 42.8-9.7-10.1-23.4-16.3-38.4-16.3-55.6 0-73.8 74.6-22.9 100.1-1.8 7.9-2.6 16.3-2.6 24.7 0 83.8 94.4 151.7 210.3 151.7 116.4 0 210.8-67.9 210.8-151.7 0-8.4-.9-17.2-3.1-25.1 49.9-25.6 31.5-99.7-23.8-99.7zM129.4 308.9c0-22 17.6-39.7 39.7-39.7 21.6 0 39.2 17.6 39.2 39.7 0 21.6-17.6 39.2-39.2 39.2-22 .1-39.7-17.6-39.7-39.2zm214.3 93.5c-36.4 36.4-139.1 36.4-175.5 0-4-3.5-4-9.7 0-13.7 3.5-3.5 9.7-3.5 13.2 0 27.8 28.5 120 29 149 0 3.5-3.5 9.7-3.5 13.2 0 4.1 4 4.1 10.2.1 13.7zm-.8-54.2c-21.6 0-39.2-17.6-39.2-39.2 0-22 17.6-39.7 39.2-39.7 22 0 39.7 17.6 39.7 39.7-.1 21.5-17.7 39.2-39.7 39.2z" class="icon"/></symbol><symbol id="patreon" viewBox="0 0 512 512"><path d="M512 194.8c0 101.3-82.4 183.8-183.8 183.8-101.7 0-184.4-82.4-184.4-183.8 0-101.6 82.7-184.3 184.4-184.3C429.6 10.5 512 93.2 512 194.8zM0 501.5h90v-491H0v491z" class="icon"/></symbol><symbol id="facebook-f" viewBox="0 0 320 512"><path d="m279.14 288 14.22-92.66h-88.91v-60.13c0-25.35 12.42-50.06 52.24-50.06h40.42V6.26S260.43 0 225.36 0c-73.22 0-121.08 44.38-121.08 124.72v70.62H22.89V288h81.39v224h100.17V288z" class="icon"/></symbol><symbol id="bandcamp" viewBox="0 0 512 512"><path d="M256 8C119 8 8 119 8 256s111 248 248 248 248-111 248-248S393 8 256 8Zm48.2 326.1h-181L207.9 178h181Z" class="icon"/></symbol><symbol id="soundcloud" viewBox="0 0 640 512"><path d="m111.4 256.3 5.8 65-5.8 68.3c-.3 2.5-2.2 4.4-4.4 4.4s-4.2-1.9-4.2-4.4l-5.6-68.3 5.6-65c0-2.2 1.9-4.2 4.2-4.2 2.2 0 4.1 2 4.4 4.2zm21.4-45.6c-2.8 0-4.7 2.2-5 5l-5 105.6 5 68.3c.3 2.8 2.2 5 5 5 2.5 0 4.7-2.2 4.7-5l5.8-68.3-5.8-105.6c0-2.8-2.2-5-4.7-5zm25.5-24.1c-3.1 0-5.3 2.2-5.6 5.3l-4.4 130 4.4 67.8c.3 3.1 2.5 5.3 5.6 5.3 2.8 0 5.3-2.2 5.3-5.3l5.3-67.8-5.3-130c0-3.1-2.5-5.3-5.3-5.3zM7.2 283.2c-1.4 0-2.2 1.1-2.5 2.5L0 321.3l4.7 35c.3 1.4 1.1 2.5 2.5 2.5s2.2-1.1 2.5-2.5l5.6-35-5.6-35.6c-.3-1.4-1.1-2.5-2.5-2.5zm23.6-21.9c-1.4 0-2.5 1.1-2.5 2.5l-6.4 57.5 6.4 56.1c0 1.7 1.1 2.8 2.5 2.8s2.5-1.1 2.8-2.5l7.2-56.4-7.2-57.5c-.3-1.4-1.4-2.5-2.8-2.5zm25.3-11.4c-1.7 0-3.1 1.4-3.3 3.3L47 321.3l5.8 65.8c.3 1.7 1.7 3.1 3.3 3.1 1.7 0 3.1-1.4 3.1-3.1l6.9-65.8-6.9-68.1c0-1.9-1.4-3.3-3.1-3.3zm25.3-2.2c-1.9 0-3.6 1.4-3.6 3.6l-5.8 70 5.8 67.8c0 2.2 1.7 3.6 3.6 3.6s3.6-1.4 3.9-3.6l6.4-67.8-6.4-70c-.3-2.2-2-3.6-3.9-3.6zm241.4-110.9c-1.1-.8-2.8-1.4-4.2-1.4-2.2 0-4.2.8-5.6 1.9-1.9 1.7-3.1 4.2-3.3 6.7v.8l-3.3 176.7 1.7 32.5 1.7 31.7c.3 4.7 4.2 8.6 8.9 8.6s8.6-3.9 8.6-8.6l3.9-64.2-3.9-177.5c-.4-3-2-5.8-4.5-7.2zm-26.7 15.3c-1.4-.8-2.8-1.4-4.4-1.4s-3.1.6-4.4 1.4c-2.2 1.4-3.6 3.9-3.6 6.7l-.3 1.7-2.8 160.8s0 .3 3.1 65.6v.3c0 1.7.6 3.3 1.7 4.7 1.7 1.9 3.9 3.1 6.4 3.1 2.2 0 4.2-1.1 5.6-2.5 1.7-1.4 2.5-3.3 2.5-5.6l.3-6.7 3.1-58.6-3.3-162.8c-.3-2.8-1.7-5.3-3.9-6.7zm-111.4 22.5c-3.1 0-5.8 2.8-5.8 6.1l-4.4 140.6 4.4 67.2c.3 3.3 2.8 5.8 5.8 5.8 3.3 0 5.8-2.5 6.1-5.8l5-67.2-5-140.6c-.2-3.3-2.7-6.1-6.1-6.1zm376.7 62.8c-10.8 0-21.1 2.2-30.6 6.1-6.4-70.8-65.8-126.4-138.3-126.4-17.8 0-35 3.3-50.3 9.4-6.1 2.2-7.8 4.4-7.8 9.2v249.7c0 5 3.9 8.6 8.6 9.2h218.3c43.3 0 78.6-35 78.6-78.3.1-43.6-35.2-78.9-78.5-78.9zm-296.7-60.3c-4.2 0-7.5 3.3-7.8 7.8l-3.3 136.7 3.3 65.6c.3 4.2 3.6 7.5 7.8 7.5 4.2 0 7.5-3.3 7.5-7.5l3.9-65.6-3.9-136.7c-.3-4.5-3.3-7.8-7.5-7.8zm-53.6-7.8c-3.3 0-6.4 3.1-6.4 6.7l-3.9 145.3 3.9 66.9c.3 3.6 3.1 6.4 6.4 6.4 3.6 0 6.4-2.8 6.7-6.4l4.4-66.9-4.4-145.3c-.3-3.6-3.1-6.7-6.7-6.7zm26.7 3.4c-3.9 0-6.9 3.1-6.9 6.9L227 321.3l3.9 66.4c.3 3.9 3.1 6.9 6.9 6.9s6.9-3.1 6.9-6.9l4.2-66.4-4.2-141.7c0-3.9-3-6.9-6.9-6.9z" class="icon"/></symbol><symbol id="etsy" viewBox="0 0 384 512"><path d="M384 348c-1.75 10.75-13.75 110-15.5 132-117.879-4.299-219.895-4.743-368.5 0v-25.5c45.457-8.948 60.627-8.019 61-35.25 1.793-72.322 3.524-244.143 0-322-1.029-28.46-12.13-26.765-61-36v-25.5c73.886 2.358 255.933 8.551 362.999-3.75-3.5 38.25-7.75 126.5-7.75 126.5H332C320.947 115.665 313.241 68 277.25 68h-137c-10.25 0-10.75 3.5-10.75 9.75V241.5c58 .5 88.5-2.5 88.5-2.5 29.77-.951 27.56-8.502 40.75-65.251h25.75c-4.407 101.351-3.91 61.829-1.75 160.25H257c-9.155-40.086-9.065-61.045-39.501-61.5 0 0-21.5-2-88-2v139c0 26 14.25 38.25 44.25 38.25H263c63.636 0 66.564-24.996 98.751-99.75H384z" class="icon"/></symbol><symbol id="facebook-messenger" viewBox="0 0 512 512"><path d="M256.55 8C116.52 8 8 110.34 8 248.57c0 72.3 29.71 134.78 78.07 177.94 8.35 7.51 6.63 11.86 8.05 58.23A19.92 19.92 0 0 0 122 502.31c52.91-23.3 53.59-25.14 62.56-22.7C337.85 521.8 504 423.7 504 248.57 504 110.34 396.59 8 256.55 8zm149.24 185.13-73 115.57a37.37 37.37 0 0 1-53.91 9.93l-58.08-43.47a15 15 0 0 0-18 0l-78.37 59.44c-10.46 7.93-24.16-4.6-17.11-15.67l73-115.57a37.36 37.36 0 0 1 53.91-9.93l58.06 43.46a15 15 0 0 0 18 0l78.41-59.38c10.44-7.98 24.14 4.54 17.09 15.62z" class="icon"/></symbol><symbol id="stack-exchange" viewBox="0 0 448 512"><path d="M17.7 332.3h412.7v22c0 37.7-29.3 68-65.3 68h-19L259.3 512v-89.7H83c-36 0-65.3-30.3-65.3-68v-22zm0-23.6h412.7v-85H17.7v85zm0-109.4h412.7v-85H17.7v85zM365 0H83C47 0 17.7 30.3 17.7 67.7V90h412.7V67.7C430.3 30.3 401 0 365 0z" class="icon"/></symbol><symbol id="creative-commons-nd" viewBox="0 0 496 512"><path d="M247.6 8C389.4 8 496 118.1 496 256c0 147.1-118.5 248-248.4 248C113.6 504 0 394.5 0 256 0 123.1 104.7 8 247.6 8zm.8 44.7C130.2 52.7 44.7 150.6 44.7 256c0 109.8 91.2 202.8 203.7 202.8 103.2 0 202.8-81.1 202.8-202.8.1-113.8-90.2-203.3-202.8-203.3zm94 144.3v42.5H162.1V197h180.3zm0 79.8v42.5H162.1v-42.5h180.3z" class="icon"/></symbol><symbol id="superpowers" viewBox="0 0 448 512"><path d="M448 32c-83.3 11-166.8 22-250 33-92 12.5-163.3 86.7-169 180-3.3 55.5 18 109.5 57.8 148.2L0 480c83.3-11 166.5-22 249.8-33 91.8-12.5 163.3-86.8 168.7-179.8 3.5-55.5-18-109.5-57.7-148.2L448 32zm-79.7 232.3c-4.2 79.5-74 139.2-152.8 134.5-79.5-4.7-140.7-71-136.3-151 4.5-79.2 74.3-139.3 153-134.5 79.3 4.7 140.5 71 136.1 151z" class="icon"/></symbol><symbol id="tiktok" viewBox="0 0 448 512"><path d="M448 209.91a210.06 210.06 0 0 1-122.77-39.25v178.72A162.55 162.55 0 1 1 185 188.31v89.89a74.62 74.62 0 1 0 52.23 71.18V0h88a121.18 121.18 0 0 0 1.86 22.17A122.18 122.18 0 0 0 381 102.39a121.43 121.43 0 0 0 67 20.14Z" class="icon"/></symbol><symbol id="square-facebook" viewBox="0 0 448 512"><path d="M400 32H48A48 48 0 0 0 0 80v352a48 48 0 0 0 48 48h137.25V327.69h-63V256h63v-54.64c0-62.15 37-96.48 93.67-96.48 27.14 0 55.52 4.84 55.52 4.84v61h-31.27c-30.81 0-40.42 19.12-40.42 38.73V256h68.78l-11 71.69h-57.78V480H400a48 48 0 0 0 48-48V80a48 48 0 0 0-48-48z" class="icon"/></symbol><symbol id="linkedin" viewBox="0 0 448 512"><path d="M416 32H31.9C14.3 32 0 46.5 0 64.3v383.4C0 465.5 14.3 480 31.9 480H416c17.6 0 32-14.5 32-32.3V64.3c0-17.8-14.4-32.3-32-32.3zM135.4 416H69V202.2h66.5V416zm-33.2-243c-21.3 0-38.5-17.3-38.5-38.5S80.9 96 102.2 96c21.2 0 38.5 17.3 38.5 38.5 0 21.3-17.2 38.5-38.5 38.5zm282.1 243h-66.4V312c0-24.8-.5-56.7-34.5-56.7-34.6 0-39.9 27-39.9 54.9V416h-66.4V202.2h63.7v29.2h.9c8.9-16.8 30.6-34.5 62.9-34.5 67.2 0 79.7 44.3 79.7 101.9V416z" class="icon"/></symbol><symbol id="ravelry" viewBox="0 0 512 512"><path d="M498.252 234.223c-1.208-10.34-1.7-20.826-3.746-31a310.306 310.306 0 0 0-9.622-36.6 184.068 184.068 0 0 0-30.874-57.5 251.154 251.154 0 0 0-18.818-21.689 237.362 237.362 0 0 0-47.113-36.116 240.8 240.8 0 0 0-56.723-24.668c-11.018-3.1-22.272-5.431-33.515-7.615-6.78-1.314-13.749-1.667-20.627-2.482-.316-.036-.6-.358-.9-.553q-16.143.009-32.288.006c-2.41.389-4.808.925-7.236 1.15a179.331 179.331 0 0 0-34.256 7.1 221.5 221.5 0 0 0-39.768 16.355 281.385 281.385 0 0 0-38.08 24.158c-6.167 4.61-12.268 9.36-17.974 14.518-10.173 9.207-20.372 18.433-29.927 28.268a243.878 243.878 0 0 0-33.648 43.95 206.488 206.488 0 0 0-20.494 44.6 198.2 198.2 0 0 0-7.691 34.759 201.13 201.13 0 0 0-1.552 35.521 299.716 299.716 0 0 0 4.425 40.24 226.865 226.865 0 0 0 16.73 53.3 210.543 210.543 0 0 0 24 39.528 213.589 213.589 0 0 0 26.358 28.416 251.313 251.313 0 0 0 41.787 30.586 287.831 287.831 0 0 0 55.9 25.277 269.5 269.5 0 0 0 40.641 9.835c6.071 1.01 12.275 1.253 18.412 1.873a4.149 4.149 0 0 1 1.19.56h32.289c2.507-.389 5-.937 7.527-1.143 16.336-1.332 32.107-5.335 47.489-10.717a219.992 219.992 0 0 0 48.952-23.818c9.749-6.447 19.395-13.077 28.737-20.1 5.785-4.348 10.988-9.5 16.3-14.457 3.964-3.7 7.764-7.578 11.51-11.5a232.162 232.162 0 0 0 31.427-41.639c9.542-16.045 17.355-32.905 22.3-50.926 2.859-10.413 4.947-21.045 7.017-31.652 1.032-5.279 1.251-10.723 1.87-16.087.036-.317.358-.6.552-.9v-37.056a9.757 9.757 0 0 1-.561-1.782Zm-161.117-1.15s-16.572-2.98-28.47-2.98c-27.2 0-33.57 14.9-33.57 37.04V360.8h-73.513V170.062H275.1v31.931c8.924-26.822 26.771-36.189 62.04-36.189Z" class="icon"/></symbol><symbol id="instagram" viewBox="0 0 448 512"><path d="M224.1 141c-63.6 0-114.9 51.3-114.9 114.9s51.3 114.9 114.9 114.9S339 319.5 339 255.9 287.7 141 224.1 141zm0 189.6c-41.1 0-74.7-33.5-74.7-74.7s33.5-74.7 74.7-74.7 74.7 33.5 74.7 74.7-33.6 74.7-74.7 74.7zm146.4-194.3c0 14.9-12 26.8-26.8 26.8-14.9 0-26.8-12-26.8-26.8s12-26.8 26.8-26.8 26.8 12 26.8 26.8zm76.1 27.2c-1.7-35.9-9.9-67.7-36.2-93.9-26.2-26.2-58-34.4-93.9-36.2-37-2.1-147.9-2.1-184.9 0-35.8 1.7-67.6 9.9-93.9 36.1s-34.4 58-36.2 93.9c-2.1 37-2.1 147.9 0 184.9 1.7 35.9 9.9 67.7 36.2 93.9s58 34.4 93.9 36.2c37 2.1 147.9 2.1 184.9 0 35.9-1.7 67.7-9.9 93.9-36.2 26.2-26.2 34.4-58 36.2-93.9 2.1-37 2.1-147.8 0-184.8zM398.8 388c-7.8 19.6-22.9 34.7-42.6 42.6-29.5 11.7-99.5 9-132.1 9s-102.7 2.6-132.1-9c-19.6-7.8-34.7-22.9-42.6-42.6-11.7-29.5-9-99.5-9-132.1s-2.6-102.7 9-132.1c7.8-19.6 22.9-34.7 42.6-42.6 29.5-11.7 99.5-9 132.1-9s102.7-2.6 132.1 9c19.6 7.8 34.7 22.9 42.6 42.6 11.7 29.5 9 99.5 9 132.1s2.7 102.7-9 132.1z" class="icon"/></symbol><symbol id="facebook" viewBox="0 0 512 512"><path d="M504 256C504 119 393 8 256 8S8 119 8 256c0 123.78 90.69 226.38 209.25 245V327.69h-63V256h63v-54.64c0-62.15 37-96.48 93.67-96.48 27.14 0 55.52 4.84 55.52 4.84v61h-31.28c-30.8 0-40.41 19.12-40.41 38.73V256h68.78l-11 71.69h-57.78V501C413.31 482.38 504 379.78 504 256z" class="icon"/></symbol><symbol id="square-git" viewBox="0 0 448 512"><path d="M100.59 334.24c48.57 3.31 58.95 2.11 58.95 11.94 0 20-65.55 20.06-65.55 1.52.01-5.09 3.29-9.4 6.6-13.46zm27.95-116.64c-32.29 0-33.75 44.47-.75 44.47 32.51 0 31.71-44.47.75-44.47zM448 80v352a48 48 0 0 1-48 48H48a48 48 0 0 1-48-48V80a48 48 0 0 1 48-48h352a48 48 0 0 1 48 48zm-227 69.31c0 14.49 8.38 22.88 22.86 22.88 14.74 0 23.13-8.39 23.13-22.88S258.62 127 243.88 127c-14.48 0-22.88 7.84-22.88 22.31zM199.18 195h-49.55c-25-6.55-81.56-4.85-81.56 46.75 0 18.8 9.4 32 21.85 38.11C74.23 294.23 66.8 301 66.8 310.6c0 6.87 2.79 13.22 11.18 16.76-8.9 8.4-14 14.48-14 25.92C64 373.35 81.53 385 127.52 385c44.22 0 69.87-16.51 69.87-45.73 0-36.67-28.23-35.32-94.77-39.38l8.38-13.43c17 4.74 74.19 6.23 74.19-42.43 0-11.69-4.83-19.82-9.4-25.67l23.38-1.78zm84.34 109.84-13-1.78c-3.82-.51-4.07-1-4.07-5.09V192.52h-52.6l-2.79 20.57c15.75 5.55 17 4.86 17 10.17V298c0 5.62-.31 4.58-17 6.87v20.06h72.42zM384 315l-6.87-22.37c-40.93 15.37-37.85-12.41-37.85-16.73v-60.72h37.85v-25.41h-35.82c-2.87 0-2 2.52-2-38.63h-24.18c-2.79 27.7-11.68 38.88-34 41.42v22.62c20.47 0 19.82-.85 19.82 2.54v66.57c0 28.72 11.43 40.91 41.67 40.91 14.45 0 30.45-4.83 41.38-10.2z" class="icon"/></symbol><symbol id="square-tumblr" viewBox="0 0 448 512"><path d="M400 32H48C21.5 32 0 53.5 0 80v352c0 26.5 21.5 48 48 48h352c26.5 0 48-21.5 48-48V80c0-26.5-21.5-48-48-48zm-82.3 364.2c-8.5 9.1-31.2 19.8-60.9 19.8-75.5 0-91.9-55.5-91.9-87.9v-90h-29.7c-3.4 0-6.2-2.8-6.2-6.2v-42.5c0-4.5 2.8-8.5 7.1-10 38.8-13.7 50.9-47.5 52.7-73.2.5-6.9 4.1-10.2 10-10.2h44.3c3.4 0 6.2 2.8 6.2 6.2v72h51.9c3.4 0 6.2 2.8 6.2 6.2v51.1c0 3.4-2.8 6.2-6.2 6.2h-52.1V321c0 21.4 14.8 33.5 42.5 22.4 3-1.2 5.6-2 8-1.4 2.2.5 3.6 2.1 4.6 4.9l13.8 40.2c1 3.2 2 6.7-.3 9.1z" class="icon"/></symbol><symbol id="bots" viewBox="0 0 640 512"><path d="M86.344 197.834a51.767 51.767 0 0 0-41.57 20.058v-61.874a8.19 8.19 0 0 0-8.19-8.19H8.19a8.19 8.19 0 0 0-8.19 8.19v177.533a8.189 8.189 0 0 0 8.19 8.189h28.394a8.189 8.189 0 0 0 8.19-8.189v-8.088c11.628 13.373 25.874 19.769 41.573 19.769 34.6 0 61.922-26.164 61.922-73.843-.003-45.937-27.04-73.555-61.925-73.555ZM71.516 305.691c-9.593 0-21.221-4.942-26.745-12.5v-43.027c5.528-7.558 17.152-12.791 26.745-12.791 17.734 0 31.107 13.082 31.107 34.013 0 21.223-13.373 34.305-31.107 34.305Zm156.372-59.032a17.4 17.4 0 1 0 17.4 17.4 17.4 17.4 0 0 0-17.4-17.4Zm46.068-89.959v-44.661a13.308 13.308 0 1 0-10.237 0V156.7a107.49 107.49 0 1 0 10.237 0Zm85.993 107.367c0 30.531-40.792 55.281-91.112 55.281s-91.111-24.75-91.111-55.281 40.792-55.281 91.111-55.281 91.112 24.746 91.112 55.276Zm-50.163 17.4a17.4 17.4 0 1 0-17.4-17.4 17.4 17.4 0 0 0 17.4 17.399ZM580.7 250.455c-14.828-2.617-22.387-3.78-22.387-9.885 0-5.523 7.268-9.884 17.735-9.884a65.56 65.56 0 0 1 34.484 10.1 8.171 8.171 0 0 0 11.288-2.468c.07-.11.138-.221.2-.333l8.611-14.886a8.2 8.2 0 0 0-2.867-11.123 99.863 99.863 0 0 0-52.014-14.138c-38.956 0-60.179 21.514-60.179 46.225 0 36.342 33.725 41.864 57.563 45.642 13.373 2.326 24.13 4.361 24.13 11.048 0 6.4-5.523 10.757-18.9 10.757-13.552 0-30.994-6.222-42.623-13.579a8.206 8.206 0 0 0-11.335 2.491 2.76 2.76 0 0 0-.1.164l-10.2 16.891a8.222 8.222 0 0 0 2.491 11.066c15.224 10.3 37.663 16.692 59.441 16.692 40.409 0 63.957-19.769 63.957-46.515.005-38.09-35.458-43.904-59.295-48.265Zm-95.928 60.787a8.211 8.211 0 0 0-9.521-5.938 23.168 23.168 0 0 1-4.155.387c-7.849 0-12.5-6.106-12.5-14.245V240.28h20.349a8.143 8.143 0 0 0 8.141-8.143v-22.671a8.143 8.143 0 0 0-8.141-8.143h-20.351v-30.232a8.143 8.143 0 0 0-8.143-8.143h-28.194a8.143 8.143 0 0 0-8.143 8.143v30.232H399a8.143 8.143 0 0 0-8.143 8.143v22.671A8.143 8.143 0 0 0 399 240.28h15.115v63.667c0 27.037 15.408 41.282 43.9 41.282 12.183 0 21.383-2.2 27.6-5.446a8.161 8.161 0 0 0 4.145-9.278Z" class="icon"/></symbol><symbol id="free-code-camp" viewBox="0 0 576 512"><path d="M97.22 96.21c10.36-10.65 16-17.12 16-21.9 0-2.76-1.92-5.51-3.83-7.42a14.81 14.81 0 0 0-8.39-2.84c-8.48 0-20.92 8.79-35.84 25.69C23.68 137 2.51 182.81 3.37 250.34s17.47 117 54.06 161.87C76.22 435.86 90.62 448 100.9 448a13.55 13.55 0 0 0 8.37-3.84c1.91-2.76 3.81-5.63 3.81-8.38 0-5.63-3.86-12.2-13.2-20.55-44.45-42.33-67.32-97-67.48-165-.15-61.43 21.6-112.4 64.82-154.02Zm142.25 323.86c.58.37.91.55.91.55Zm93.79.55.17-.13c-.19.13-.26.18-.17.13Zm3.13-158.18c-16.24-4.15 50.41-82.89-68.05-177.17 0 0 15.54 49.38-62.83 159.57-74.27 104.35 23.46 168.73 34 175.23-6.73-4.35-47.4-35.7 9.55-128.64 11-18.3 25.53-34.87 43.5-72.16 0 0 15.91 22.45 7.6 71.13C287.7 364 354 342.91 355 343.94c22.75 26.78-17.72 73.51-21.58 76.55 5.49-3.65 117.71-78 33-188.1-5.99 6.01-13.8 34.2-30.03 30.05ZM510.88 89.69C496 72.79 483.52 64 475 64a14.81 14.81 0 0 0-8.39 2.84c-1.91 1.91-3.83 4.66-3.83 7.42 0 4.78 5.6 11.26 16 21.9 43.23 41.61 65 92.59 64.82 154.06-.16 68-23 122.63-67.48 165-9.34 8.35-13.18 14.92-13.2 20.55 0 2.75 1.9 5.62 3.81 8.38a13.61 13.61 0 0 0 8.37 3.85c10.28 0 24.68-12.13 43.47-35.79 36.59-44.85 53.14-94.38 54.06-161.87S552.32 137 510.88 89.69Z" class="icon"/></symbol><symbol id="js" viewBox="0 0 448 512"><path d="M0 32v448h448V32H0zm243.8 349.4c0 43.6-25.6 63.5-62.9 63.5-33.7 0-53.2-17.4-63.2-38.5l34.3-20.7c6.6 11.7 12.6 21.6 27.1 21.6 13.8 0 22.6-5.4 22.6-26.5V237.7h42.1v143.7zm99.6 63.5c-39.1 0-64.4-18.6-76.7-43l34.3-19.8c9 14.7 20.8 25.6 41.5 25.6 17.4 0 28.6-8.7 28.6-20.8 0-14.4-11.4-19.5-30.7-28l-10.5-4.5c-30.4-12.9-50.5-29.2-50.5-63.5 0-31.6 24.1-55.6 61.6-55.6 26.8 0 46 9.3 59.8 33.7L368 290c-7.2-12.9-15-18-27.1-18-12.3 0-20.1 7.8-20.1 18 0 12.6 7.8 17.7 25.9 25.6l10.5 4.5c35.8 15.3 55.9 31 55.9 66.2 0 37.8-29.8 58.6-69.7 58.6z" class="icon"/></symbol><symbol id="git" viewBox="0 0 512 512"><path d="M216.29 158.39H137C97 147.9 6.51 150.63 6.51 233.18c0 30.09 15 51.23 35 61-25.1 23-37 33.85-37 49.21 0 11 4.47 21.14 17.89 26.81C8.13 383.61 0 393.35 0 411.65c0 32.11 28.05 50.82 101.63 50.82 70.75 0 111.79-26.42 111.79-73.18 0-58.66-45.16-56.5-151.63-63l13.43-21.55c27.27 7.58 118.7 10 118.7-67.89 0-18.7-7.73-31.71-15-41.07l37.41-2.84zm-63.42 241.9c0 32.06-104.89 32.1-104.89 2.43 0-8.14 5.27-15 10.57-21.54 77.71 5.3 94.32 3.37 94.32 19.11zm-50.81-134.58c-52.8 0-50.46-71.16 1.2-71.16 49.54 0 50.82 71.16-1.2 71.16zm133.3 100.51v-32.1c26.75-3.66 27.24-2 27.24-11V203.61c0-8.5-2.05-7.38-27.24-16.26l4.47-32.92H324v168.71c0 6.51.4 7.32 6.51 8.14l20.73 2.84v32.1zm52.45-244.31c-23.17 0-36.59-13.43-36.59-36.61s13.42-35.77 36.59-35.77c23.58 0 37 12.62 37 35.77s-13.42 36.61-37 36.61zM512 350.46c-17.49 8.53-43.1 16.26-66.28 16.26-48.38 0-66.67-19.5-66.67-65.46V194.75c0-5.42 1.05-4.06-31.71-4.06V154.5c35.78-4.07 50-22 54.47-66.27h38.63c0 65.83-1.34 61.81 3.26 61.81H501v40.65h-60.56v97.15c0 6.92-4.92 51.41 60.57 26.84z" class="icon"/></symbol><symbol id="github" viewBox="0 0 496 512"><path d="M165.9 397.4c0 2-2.3 3.6-5.2 3.6-3.3.3-5.6-1.3-5.6-3.6 0-2 2.3-3.6 5.2-3.6 3-.3 5.6 1.3 5.6 3.6zm-31.1-4.5c-.7 2 1.3 4.3 4.3 4.9 2.6 1 5.6 0 6.2-2s-1.3-4.3-4.3-5.2c-2.6-.7-5.5.3-6.2 2.3zm44.2-1.7c-2.9.7-4.9 2.6-4.6 4.9.3 2 2.9 3.3 5.9 2.6 2.9-.7 4.9-2.6 4.6-4.6-.3-1.9-3-3.2-5.9-2.9zM244.8 8C106.1 8 0 113.3 0 252c0 110.9 69.8 205.8 169.5 239.2 12.8 2.3 17.3-5.6 17.3-12.1 0-6.2-.3-40.4-.3-61.4 0 0-70 15-84.7-29.8 0 0-11.4-29.1-27.8-36.6 0 0-22.9-15.7 1.6-15.4 0 0 24.9 2 38.6 25.8 21.9 38.6 58.6 27.5 72.9 20.9 2.3-16 8.8-27.1 16-33.7-55.9-6.2-112.3-14.3-112.3-110.5 0-27.5 7.6-41.3 23.6-58.9-2.6-6.5-11.1-33.3 2.6-67.9 20.9-6.5 69 27 69 27 20-5.6 41.5-8.5 62.8-8.5s42.8 2.9 62.8 8.5c0 0 48.1-33.6 69-27 13.7 34.7 5.2 61.4 2.6 67.9 16 17.7 25.8 31.5 25.8 58.9 0 96.5-58.9 104.2-114.8 110.5 9.2 7.9 17 22.9 17 46.4 0 33.7-.3 75.4-.3 83.6 0 6.5 4.6 14.4 17.3 12.1C428.2 457.8 496 362.9 496 252 496 113.3 383.5 8 244.8 8zM97.2 352.9c-1.3 1-1 3.3.7 5.2 1.6 1.6 3.9 2.3 5.2 1 1.3-1 1-3.3-.7-5.2-1.6-1.6-3.9-2.3-5.2-1zm-10.8-8.1c-.7 1.3.3 2.9 2.3 3.9 1.6 1 3.6.7 4.3-.7.7-1.3-.3-2.9-2.3-3.9-2-.6-3.6-.3-4.3.7zm32.4 35.6c-1.6 1.3-1 4.3 1.3 6.2 2.3 2.3 5.2 2.6 6.5 1 1.3-1.3.7-4.3-1.3-6.2-2.2-2.3-5.2-2.6-6.5-1zm-11.4-14.7c-1.6 1-1.6 3.6 0 5.9 1.6 2.3 4.3 3.3 5.6 2.3 1.6-1.3 1.6-3.9 0-6.2-1.4-2.3-4-3.3-5.6-2z" class="icon"/></symbol><symbol id="youtube" viewBox="0 0 576 512"><path d="M549.655 124.083c-6.281-23.65-24.787-42.276-48.284-48.597C458.781 64 288 64 288 64S117.22 64 74.629 75.486c-23.497 6.322-42.003 24.947-48.284 48.597-11.412 42.867-11.412 132.305-11.412 132.305s0 89.438 11.412 132.305c6.281 23.65 24.787 41.5 48.284 47.821C117.22 448 288 448 288 448s170.78 0 213.371-11.486c23.497-6.321 42.003-24.171 48.284-47.821 11.412-42.867 11.412-132.305 11.412-132.305s0-89.438-11.412-132.305zm-317.51 213.508V175.185l142.739 81.205-142.739 81.201z" class="icon"/></symbol><symbol id="twitter" viewBox="0 0 512 512"><path d="M459.37 151.716c.325 4.548.325 9.097.325 13.645 0 138.72-105.583 298.558-298.558 298.558-59.452 0-114.68-17.219-161.137-47.106 8.447.974 16.568 1.299 25.34 1.299 49.055 0 94.213-16.568 130.274-44.832-46.132-.975-84.792-31.188-98.112-72.772 6.498.974 12.995 1.624 19.818 1.624 9.421 0 18.843-1.3 27.614-3.573-48.081-9.747-84.143-51.98-84.143-102.985v-1.299c13.969 7.797 30.214 12.67 47.431 13.319-28.264-18.843-46.781-51.005-46.781-87.391 0-19.492 5.197-37.36 14.294-52.954 51.655 63.675 129.3 105.258 216.365 109.807-1.624-7.797-2.599-15.918-2.599-24.04 0-57.828 46.782-104.934 104.934-104.934 30.213 0 57.502 12.67 76.67 33.137 23.715-4.548 46.456-13.32 66.599-25.34-7.798 24.366-24.366 44.833-46.132 57.827 21.117-2.273 41.584-8.122 60.426-16.243-14.292 20.791-32.161 39.308-52.628 54.253z" class="icon"/></symbol><symbol id="npm" viewBox="0 0 576 512"><path d="M288 288h-32v-64h32v64zm288-128v192H288v32H160v-32H0V160h576zm-416 32H32v128h64v-96h32v96h32V192zm160 0H192v160h64v-32h64V192zm224 0H352v128h64v-96h32v96h32v-96h32v96h32V192z" class="icon"/></symbol><symbol id="tumblr" viewBox="0 0 320 512"><path d="M309.8 480.3c-13.6 14.5-50 31.7-97.4 31.7-120.8 0-147-88.8-147-140.6v-144H17.9c-5.5 0-10-4.5-10-10v-68c0-7.2 4.5-13.6 11.3-16 62-21.8 81.5-76 84.3-117.1.8-11 6.5-16.3 16.1-16.3h70.9c5.5 0 10 4.5 10 10v115.2h83c5.5 0 10 4.4 10 9.9v81.7c0 5.5-4.5 10-10 10h-83.4V360c0 34.2 23.7 53.6 68 35.8 4.8-1.9 9-3.2 12.7-2.2 3.5.9 5.8 3.4 7.4 7.9l22 64.3c1.8 5 3.3 10.6-.4 14.5z" class="icon"/></symbol><symbol id="mastodon" viewBox="0 0 448 512"><path d="M433 179.11c0-97.2-63.71-125.7-63.71-125.7-62.52-28.7-228.56-28.4-290.48 0 0 0-63.72 28.5-63.72 125.7 0 115.7-6.6 259.4 105.63 289.1 40.51 10.7 75.32 13 103.33 11.4 50.81-2.8 79.32-18.1 79.32-18.1l-1.7-36.9s-36.31 11.4-77.12 10.1c-40.41-1.4-83-4.4-89.63-54a102.54 102.54 0 0 1-.9-13.9c85.63 20.9 158.65 9.1 178.75 6.7 56.12-6.7 105-41.3 111.23-72.9 9.8-49.8 9-121.5 9-121.5zm-75.12 125.2h-46.63v-114.2c0-49.7-64-51.6-64 6.9v62.5h-46.33V197c0-58.5-64-56.6-64-6.9v114.2H90.19c0-122.1-5.2-147.9 18.41-175 25.9-28.9 79.82-30.8 103.83 6.1l11.6 19.5 11.6-19.5c24.11-37.1 78.12-34.8 103.83-6.1 23.71 27.3 18.4 53 18.4 175z" class="icon"/></symbol></svg>